<svg width="44" height="44" viewBox="0 0 44 44" fill="none" xmlns="http://www.w3.org/2000/svg">
<path d="M39.25 2H5.25C4.45435 2 3.69129 2.31607 3.12868 2.87868C2.56607 3.44129 2.25 4.20435 2.25 5V39C2.25 39.7956 2.56607 40.5587 3.12868 41.1213C3.69129 41.6839 4.45435 42 5.25 42H39.25C40.0456 42 40.8087 41.6839 41.3713 41.1213C41.9339 40.5587 42.25 39.7956 42.25 39V5C42.25 4.20435 41.9339 3.44129 41.3713 2.87868C40.8087 2.31607 40.0456 2 39.25 2V2Z" stroke="#9FC3FA" stroke-width="3" stroke-linejoin="round"/>
<path d="M10.25 17.054C13.575 13.054 17.575 11.054 22.25 11.054C26.925 11.054 30.925 13.054 34.25 17.054" stroke="#4285E8" stroke-width="3" stroke-linecap="round"/>
<path d="M22.25 29C23.0456 29 23.8087 28.6839 24.3713 28.1213C24.9339 27.5587 25.25 26.7956 25.25 26C25.25 25.2044 24.9339 24.4413 24.3713 23.8787C23.8087 23.3161 23.0456 23 22.25 23C21.4544 23 20.6913 23.3161 20.1287 23.8787C19.5661 24.4413 19.25 25.2044 19.25 26C19.25 26.7956 19.5661 27.5587 20.1287 28.1213C20.6913 28.6839 21.4544 29 22.25 29Z" fill="#022060"/>
<path d="M17.25 19L22.258 26L17.25 19Z" fill="#022060"/>
<path d="M17.25 19L22.258 26" stroke="#022060" stroke-width="2" stroke-linecap="round"/>
</svg>
