<svg width="51" height="52" viewBox="0 0 51 52" fill="none" xmlns="http://www.w3.org/2000/svg">
<rect x="4.5" y="5.5" width="45" height="45" rx="22.5" stroke="#9FC3FA" stroke-width="3"/>
<path d="M33.4747 14.0011C33.4058 14.0038 33.3374 14.0147 33.2711 14.0336C33.1163 14.074 32.9757 14.1565 32.8649 14.2719L13.2337 33.9041C13.0835 34.0646 13 34.2762 13 34.4961C13 34.7159 13.0835 34.9275 13.2337 35.088L19.9027 41.757C19.996 41.847 20.1082 41.9149 20.2312 41.9558C20.3541 41.9966 20.4847 42.0094 20.6133 41.9931C20.7922 41.9659 20.9581 41.8833 21.0877 41.757L40.7188 22.1248C40.8693 21.9642 40.9531 21.7524 40.9531 21.5323C40.9531 21.3122 40.8693 21.1004 40.7188 20.9398L34.0488 14.2708C34.0283 14.2473 34.0066 14.2248 33.9838 14.2036C33.9725 14.1921 33.961 14.1809 33.9491 14.1701C33.8577 14.1058 33.7547 14.0598 33.6458 14.0347C33.5901 14.0174 33.5328 14.0058 33.4747 14V14.0011ZM33.4411 16.1327L38.8569 21.515L20.4768 39.8951L15.061 34.5128L16.3814 33.1925L18.0397 34.8519C18.1395 34.9749 18.2711 35.0683 18.4203 35.1218C18.5694 35.1752 18.7304 35.1868 18.8856 35.1552C18.9445 35.1388 19.0015 35.1163 19.0557 35.088C19.0785 35.0778 19.1009 35.0666 19.1228 35.0544C19.1828 35.027 19.2395 34.9929 19.2918 34.9526C19.3037 34.9417 19.3152 34.9305 19.3265 34.919C19.3765 34.879 19.4219 34.8336 19.4619 34.7836C19.5778 34.6009 19.6212 34.3815 19.5835 34.1684C19.5458 33.9553 19.4298 33.7641 19.2582 33.6322L17.5999 31.975L18.6831 30.8918L20.3414 32.5491C20.4409 32.6725 20.5725 32.7663 20.7216 32.8202C20.8708 32.874 21.0319 32.8859 21.1873 32.8545C21.2463 32.8379 21.3033 32.815 21.3574 32.7863C21.3802 32.7761 21.4027 32.7649 21.4245 32.7527C21.4846 32.7253 21.5413 32.6912 21.5935 32.6509C21.605 32.64 21.6162 32.6288 21.6271 32.6173C21.6775 32.5774 21.7232 32.532 21.7636 32.4819C21.8795 32.2992 21.9229 32.0798 21.8852 31.8667C21.8475 31.6536 21.7315 31.4624 21.5599 31.3305L19.9016 29.6733L20.9848 28.5901L24.1324 31.7714C24.1913 31.8378 24.2599 31.8948 24.3361 31.9403C24.358 31.9525 24.3804 31.9637 24.4032 31.9739C24.457 32.0025 24.5136 32.0254 24.5722 32.0422C24.5944 32.0543 24.6172 32.0656 24.6404 32.0757C24.752 32.0979 24.8668 32.0979 24.9784 32.0757C25.037 32.059 25.0936 32.0361 25.1474 32.0075C25.1706 31.9977 25.1933 31.9868 25.2156 31.975C25.2757 31.9473 25.3324 31.9127 25.3846 31.8721C25.3961 31.8616 25.4073 31.8507 25.4182 31.8396C25.4686 31.7993 25.5144 31.7536 25.5546 31.7031C25.6703 31.5205 25.7135 31.3013 25.6758 31.0885C25.6381 30.8757 25.5223 30.6846 25.351 30.5528L22.2033 27.3705L23.2529 26.3209L24.9101 27.9457C25.0208 28.0626 25.1615 28.1468 25.3169 28.1888C25.4723 28.2308 25.6363 28.2292 25.7908 28.184C25.9657 28.1306 26.1195 28.0238 26.2305 27.8785C26.361 27.7111 26.4261 27.502 26.4138 27.2902C26.4014 27.0783 26.3124 26.8782 26.1634 26.7271L24.505 25.0699L25.5546 24.0192L27.2119 25.6439C27.3225 25.7609 27.4632 25.845 27.6186 25.8871C27.774 25.9291 27.938 25.9275 28.0925 25.8822C28.2674 25.8289 28.4212 25.7221 28.5322 25.5768C28.6627 25.4094 28.7279 25.2003 28.7155 24.9884C28.7031 24.7766 28.6141 24.5765 28.4651 24.4254L26.8068 22.7682L27.8563 21.7175L31.0376 24.8662C31.1532 24.9991 31.3066 25.0936 31.4773 25.137C31.4996 25.1492 31.5224 25.1604 31.5456 25.1706C31.6571 25.1928 31.772 25.1928 31.8835 25.1706C31.9425 25.1539 31.9995 25.1311 32.0536 25.1024C32.0764 25.0925 32.0988 25.0817 32.1207 25.0699C32.1808 25.0421 32.2375 25.0076 32.2897 24.967C32.3016 24.9565 32.3131 24.9456 32.3244 24.9345C32.3744 24.8942 32.4198 24.8484 32.4598 24.798C32.5754 24.6154 32.6186 24.3962 32.5809 24.1834C32.5433 23.9706 32.4274 23.7795 32.2561 23.6477L29.0738 20.5L30.157 19.4169L31.8164 21.0741C31.9205 21.1794 32.0497 21.2565 32.1918 21.2982C32.3339 21.3398 32.4842 21.3447 32.6287 21.3124C32.6873 21.2956 32.7439 21.2727 32.7977 21.2442C32.8209 21.234 32.8437 21.2228 32.8659 21.2106C32.9143 21.1811 32.9596 21.147 33.0013 21.1088C33.0925 21.0292 33.1661 20.9315 33.2175 20.822C33.2689 20.7125 33.2971 20.5935 33.3001 20.4725C33.3032 20.3515 33.2811 20.2313 33.2353 20.1193C33.1894 20.0073 33.1208 19.9061 33.0338 19.822L31.3766 18.1972L33.4411 16.1327Z" fill="#022060"/>
</svg>
