<svg width="49" height="48" viewBox="0 0 49 48" fill="none" xmlns="http://www.w3.org/2000/svg">
<rect x="2.5" y="1.5" width="45" height="45" rx="22.5" stroke="#9FC3FA" stroke-width="3"/>
<path fill-rule="evenodd" clip-rule="evenodd" d="M24.9927 16.4332C25.8458 16.4332 26.664 16.0944 27.2672 15.4911C27.8705 14.8879 28.2094 14.0697 28.2094 13.2166C28.2094 12.3635 27.8705 11.5454 27.2672 10.9421C26.664 10.3389 25.8458 10 24.9927 10C24.1396 10 23.3215 10.3389 22.7182 10.9421C22.115 11.5454 21.7761 12.3635 21.7761 13.2166C21.7761 14.0697 22.115 14.8879 22.7182 15.4911C23.3215 16.0944 24.1396 16.4332 24.9927 16.4332ZM33.9707 19.3497C34.1509 19.4022 34.319 19.4898 34.4654 19.6073C34.6118 19.7248 34.7336 19.8701 34.8239 20.0347C34.9142 20.1993 34.9711 20.3801 34.9915 20.5667C35.0119 20.7533 34.9954 20.9421 34.9428 21.1224C34.8902 21.3026 34.8027 21.4707 34.6852 21.6171C34.5676 21.7635 34.4224 21.8853 34.2578 21.9756C34.0932 22.0658 33.9124 22.1228 33.7258 22.1432C33.5391 22.1636 33.3503 22.1471 33.1701 22.0945C32.4369 21.8796 30.5737 21.6919 29.8312 21.5113L29.8656 21.6171C29.8312 24.7458 29.8656 27.5127 29.8656 30.0346L29.6032 37.48C29.5251 37.8226 29.3235 38.1245 29.037 38.328C28.7504 38.5315 28.3989 38.6222 28.0497 38.583C27.7004 38.5437 27.3778 38.3772 27.1436 38.1152C26.9093 37.8532 26.7798 37.514 26.7797 37.1626V32.8237C26.2108 32.8738 25.6189 32.8738 24.9927 32.8738C24.4967 32.8738 24.022 32.8738 23.5631 32.8487V37.1626C23.5629 37.514 23.4332 37.853 23.1989 38.1149C22.9646 38.3767 22.642 38.5431 22.2928 38.5823C21.9436 38.6215 21.5922 38.5306 21.3057 38.3272C21.0192 38.1237 20.8177 37.8219 20.7396 37.4793L20.6396 30.7501C20.6396 28.2275 20.7396 25.0109 20.3346 21.5019L20.361 21.419C19.6591 21.5848 17.5816 21.8822 16.7975 22.0995C16.4336 22.1964 16.0462 22.1458 15.7194 21.9588C15.3926 21.7717 15.1528 21.4633 15.0521 21.1005C14.9514 20.7377 14.9979 20.3498 15.1814 20.021C15.365 19.6923 15.6709 19.4492 16.0326 19.3446C19.4387 18.399 22.1907 17.8757 24.9863 17.8629C27.7862 17.8507 30.5453 18.3511 33.9707 19.3497Z" fill="#022060"/>
</svg>
