<svg width="50" height="50" viewBox="0 0 50 50" fill="none" xmlns="http://www.w3.org/2000/svg">
<rect x="2.5" y="2.5" width="45" height="45" rx="22.5" stroke="#9FC3FA" stroke-width="3"/>
<path fill-rule="evenodd" clip-rule="evenodd" d="M24.9927 17.4332C25.8458 17.4332 26.664 17.0944 27.2672 16.4911C27.8705 15.8879 28.2094 15.0697 28.2094 14.2166C28.2094 13.3635 27.8705 12.5454 27.2672 11.9421C26.664 11.3389 25.8458 11 24.9927 11C24.1396 11 23.3215 11.3389 22.7182 11.9421C22.115 12.5454 21.7761 13.3635 21.7761 14.2166C21.7761 15.0697 22.115 15.8879 22.7182 16.4911C23.3215 17.0944 24.1396 17.4332 24.9927 17.4332ZM33.9707 20.3497C34.1509 20.4022 34.319 20.4898 34.4654 20.6073C34.6118 20.7248 34.7336 20.8701 34.8239 21.0347C34.9142 21.1993 34.9711 21.3801 34.9915 21.5667C35.0119 21.7533 34.9954 21.9421 34.9428 22.1224C34.8902 22.3026 34.8027 22.4707 34.6852 22.6171C34.5676 22.7635 34.4224 22.8853 34.2578 22.9756C34.0932 23.0658 33.9124 23.1228 33.7258 23.1432C33.5391 23.1636 33.3503 23.1471 33.1701 23.0945C32.4369 22.8796 30.5737 22.6919 29.8312 22.5113L29.8656 22.6171C29.8312 25.7458 29.8656 28.5127 29.8656 31.0346L29.6032 38.48C29.5251 38.8226 29.3235 39.1245 29.037 39.328C28.7504 39.5315 28.3989 39.6222 28.0497 39.583C27.7004 39.5437 27.3778 39.3772 27.1436 39.1152C26.9093 38.8532 26.7798 38.514 26.7797 38.1626V33.8237C26.2108 33.8738 25.6189 33.8738 24.9927 33.8738C24.4967 33.8738 24.022 33.8738 23.5631 33.8487V38.1626C23.5629 38.514 23.4332 38.853 23.1989 39.1149C22.9646 39.3767 22.642 39.5431 22.2928 39.5823C21.9436 39.6215 21.5922 39.5306 21.3057 39.3272C21.0192 39.1237 20.8177 38.8219 20.7396 38.4793L20.6396 31.7501C20.6396 29.2275 20.7396 26.0109 20.3346 22.5019L20.361 22.419C19.6591 22.5848 17.5816 22.8822 16.7975 23.0995C16.4336 23.1964 16.0462 23.1458 15.7194 22.9588C15.3926 22.7717 15.1528 22.4633 15.0521 22.1005C14.9514 21.7377 14.9979 21.3498 15.1814 21.021C15.365 20.6923 15.6709 20.4492 16.0326 20.3446C19.4387 19.399 22.1907 18.8757 24.9863 18.8629C27.7862 18.8507 30.5453 19.3511 33.9707 20.3497Z" fill="#022060"/>
</svg>
