<svg width="50" height="50" viewBox="0 0 50 50" fill="none" xmlns="http://www.w3.org/2000/svg">
<path d="M42 5H8C7.20435 5 6.44129 5.31607 5.87868 5.87868C5.31607 6.44129 5 7.20435 5 8V42C5 42.7956 5.31607 43.5587 5.87868 44.1213C6.44129 44.6839 7.20435 45 8 45H42C42.7956 45 43.5587 44.6839 44.1213 44.1213C44.6839 43.5587 45 42.7956 45 42V8C45 7.20435 44.6839 6.44129 44.1213 5.87868C43.5587 5.31607 42.7956 5 42 5V5Z" stroke="#9FC3FA" stroke-width="3" stroke-linejoin="round"/>
<path d="M13 20.054C16.325 16.054 20.325 14.054 25 14.054C29.675 14.054 33.675 16.054 37 20.054" stroke="#4285E8" stroke-width="3" stroke-linecap="round"/>
<path d="M25.0001 32C25.7958 32 26.5588 31.6839 27.1214 31.1213C27.6841 30.5587 28.0001 29.7956 28.0001 29C28.0001 28.2044 27.6841 27.4413 27.1214 26.8787C26.5588 26.3161 25.7958 26 25.0001 26C24.2045 26 23.4414 26.3161 22.8788 26.8787C22.3162 27.4413 22.0001 28.2044 22.0001 29C22.0001 29.7956 22.3162 30.5587 22.8788 31.1213C23.4414 31.6839 24.2045 32 25.0001 32V32Z" fill="#022060"/>
<path d="M20 22L25.008 29Z" fill="#022060"/>
<path d="M20 22L25.008 29" stroke="#022060" stroke-width="2" stroke-linecap="round"/>
</svg>
