<svg width="50" height="50" viewBox="0 0 50 50" fill="none" xmlns="http://www.w3.org/2000/svg">
<rect x="2.5" y="2.5" width="45" height="45" rx="22.5" stroke="#9FC3FA" stroke-width="3"/>
<path d="M31.4747 11.0011C31.4058 11.0038 31.3374 11.0147 31.2711 11.0336C31.1163 11.074 30.9757 11.1565 30.8649 11.2719L11.2337 30.9041C11.0835 31.0646 11 31.2762 11 31.4961C11 31.7159 11.0835 31.9275 11.2337 32.088L17.9027 38.757C17.996 38.847 18.1082 38.9149 18.2312 38.9558C18.3541 38.9966 18.4847 39.0094 18.6133 38.9931C18.7922 38.9659 18.9581 38.8833 19.0877 38.757L38.7188 19.1248C38.8693 18.9642 38.9531 18.7524 38.9531 18.5323C38.9531 18.3122 38.8693 18.1004 38.7188 17.9398L32.0488 11.2708C32.0283 11.2473 32.0066 11.2248 31.9838 11.2036C31.9725 11.1921 31.961 11.1809 31.9491 11.1701C31.8577 11.1058 31.7547 11.0598 31.6458 11.0347C31.5901 11.0174 31.5328 11.0058 31.4747 11V11.0011ZM31.4411 13.1327L36.8569 18.515L18.4768 36.8951L13.061 31.5128L14.3814 30.1925L16.0397 31.8519C16.1395 31.9749 16.2711 32.0683 16.4203 32.1218C16.5694 32.1752 16.7304 32.1868 16.8856 32.1552C16.9445 32.1388 17.0015 32.1163 17.0557 32.088C17.0785 32.0778 17.1009 32.0666 17.1228 32.0544C17.1829 32.027 17.2395 31.9929 17.2918 31.9526C17.3037 31.9417 17.3152 31.9305 17.3265 31.919C17.3765 31.879 17.4219 31.8336 17.4619 31.7836C17.5778 31.6009 17.6212 31.3815 17.5835 31.1684C17.5458 30.9553 17.4298 30.7641 17.2582 30.6322L15.5999 28.975L16.6831 27.8919L18.3414 29.5491C18.4409 29.6725 18.5725 29.7663 18.7216 29.8202C18.8708 29.874 19.0319 29.8859 19.1873 29.8545C19.2463 29.8379 19.3033 29.815 19.3574 29.7863C19.3802 29.7761 19.4027 29.7649 19.4245 29.7527C19.4846 29.7253 19.5413 29.6912 19.5935 29.6509C19.605 29.64 19.6162 29.6288 19.6271 29.6173C19.6775 29.5774 19.7232 29.532 19.7636 29.4819C19.8795 29.2992 19.9229 29.0798 19.8852 28.8667C19.8475 28.6536 19.7315 28.4624 19.5599 28.3305L17.9016 26.6733L18.9848 25.5901L22.1324 28.7714C22.1913 28.8378 22.2599 28.8948 22.3361 28.9403C22.358 28.9525 22.3804 28.9637 22.4032 28.9739C22.457 29.0025 22.5136 29.0254 22.5722 29.0422C22.5944 29.0544 22.6172 29.0656 22.6404 29.0757C22.752 29.0979 22.8668 29.0979 22.9784 29.0757C23.037 29.059 23.0936 29.0361 23.1474 29.0075C23.1706 28.9977 23.1933 28.9868 23.2156 28.975C23.2757 28.9473 23.3324 28.9127 23.3846 28.8721C23.3961 28.8616 23.4073 28.8507 23.4182 28.8396C23.4686 28.7993 23.5144 28.7536 23.5546 28.7031C23.6703 28.5205 23.7135 28.3013 23.6758 28.0885C23.6381 27.8757 23.5223 27.6846 23.351 27.5528L20.2033 24.3705L21.2529 23.3209L22.9101 24.9457C23.0208 25.0626 23.1615 25.1468 23.3169 25.1888C23.4723 25.2308 23.6363 25.2292 23.7908 25.184C23.9657 25.1306 24.1195 25.0238 24.2305 24.8785C24.361 24.7111 24.4261 24.502 24.4138 24.2902C24.4014 24.0783 24.3124 23.8782 24.1634 23.7271L22.505 22.0699L23.5546 21.0192L25.2119 22.6439C25.3225 22.7609 25.4632 22.845 25.6186 22.8871C25.774 22.9291 25.938 22.9275 26.0925 22.8822C26.2674 22.8289 26.4212 22.7221 26.5322 22.5768C26.6627 22.4094 26.7279 22.2003 26.7155 21.9884C26.7031 21.7766 26.6141 21.5765 26.4651 21.4254L24.8068 19.7682L25.8563 18.7175L29.0376 21.8662C29.1532 21.9991 29.3066 22.0936 29.4773 22.137C29.4996 22.1492 29.5224 22.1604 29.5456 22.1706C29.6571 22.1928 29.772 22.1928 29.8835 22.1706C29.9425 22.1539 29.9995 22.1311 30.0536 22.1024C30.0764 22.0925 30.0988 22.0817 30.1207 22.0699C30.1808 22.0421 30.2375 22.0076 30.2897 21.967C30.3016 21.9565 30.3131 21.9456 30.3244 21.9345C30.3744 21.8942 30.4198 21.8484 30.4598 21.798C30.5754 21.6154 30.6186 21.3962 30.5809 21.1834C30.5433 20.9706 30.4274 20.7795 30.2561 20.6477L27.0738 17.5L28.157 16.4169L29.8164 18.0741C29.9205 18.1794 30.0497 18.2565 30.1918 18.2982C30.3339 18.3398 30.4842 18.3447 30.6287 18.3124C30.6873 18.2956 30.7439 18.2727 30.7977 18.2442C30.8209 18.234 30.8437 18.2228 30.8659 18.2106C30.9143 18.1811 30.9596 18.147 31.0013 18.1088C31.0925 18.0292 31.1661 17.9315 31.2175 17.822C31.2689 17.7125 31.2971 17.5935 31.3001 17.4725C31.3032 17.3515 31.2811 17.2313 31.2353 17.1193C31.1894 17.0073 31.1208 16.9061 31.0338 16.822L29.3766 15.1972L31.4411 13.1327V13.1327Z" fill="#022060"/>
</svg>
