<svg width="44" height="44" viewBox="0 0 44 44" fill="none" xmlns="http://www.w3.org/2000/svg">
<path d="M39 2H5C4.20435 2 3.44129 2.31607 2.87868 2.87868C2.31607 3.44129 2 4.20435 2 5V39C2 39.7956 2.31607 40.5587 2.87868 41.1213C3.44129 41.6839 4.20435 42 5 42H39C39.7956 42 40.5587 41.6839 41.1213 41.1213C41.6839 40.5587 42 39.7956 42 39V5C42 4.20435 41.6839 3.44129 41.1213 2.87868C40.5587 2.31607 39.7956 2 39 2V2Z" stroke="#9FC3FA" stroke-width="3" stroke-linejoin="round"/>
<path d="M10 17.054C13.325 13.054 17.325 11.054 22 11.054C26.675 11.054 30.675 13.054 34 17.054" stroke="#4285E8" stroke-width="3" stroke-linecap="round"/>
<path d="M22 29C22.7956 29 23.5587 28.6839 24.1213 28.1213C24.6839 27.5587 25 26.7956 25 26C25 25.2044 24.6839 24.4413 24.1213 23.8787C23.5587 23.3161 22.7956 23 22 23C21.2044 23 20.4413 23.3161 19.8787 23.8787C19.3161 24.4413 19 25.2044 19 26C19 26.7956 19.3161 27.5587 19.8787 28.1213C20.4413 28.6839 21.2044 29 22 29V29Z" fill="#022060"/>
<path d="M17 19L22.008 26Z" fill="#022060"/>
<path d="M17 19L22.008 26" stroke="#022060" stroke-width="2" stroke-linecap="round"/>
</svg>
