<svg width="25" height="24" viewBox="0 0 25 24" fill="none" xmlns="http://www.w3.org/2000/svg">
<path d="M12.3072 5.82767C10.6846 5.82767 9.12848 6.47124 7.98113 7.61681C6.83378 8.76237 6.18921 10.3161 6.18921 11.9362C6.18921 13.5563 6.83378 15.11 7.98113 16.2555C9.12848 17.4011 10.6846 18.0447 12.3072 18.0447C13.9298 18.0447 15.4859 17.4011 16.6333 16.2555C17.7806 15.11 18.4252 13.5563 18.4252 11.9362C18.4252 10.3161 17.7806 8.76237 16.6333 7.61681C15.4859 6.47124 13.9298 5.82767 12.3072 5.82767ZM12.3072 15.9033C11.2531 15.9033 10.2421 15.4852 9.49676 14.7409C8.75138 13.9967 8.33263 12.9873 8.33263 11.9349C8.33263 10.8824 8.75138 9.87298 9.49676 9.12876C10.2421 8.38454 11.2531 7.96644 12.3072 7.96644C13.3613 7.96644 14.3723 8.38454 15.1177 9.12876C15.863 9.87298 16.2818 10.8824 16.2818 11.9349C16.2818 12.9873 15.863 13.9967 15.1177 14.7409C14.3723 15.4852 13.3613 15.9033 12.3072 15.9033Z" fill="white"/>
<path d="M18.6675 7.02722C19.4552 7.02722 20.0938 6.38963 20.0938 5.60313C20.0938 4.81663 19.4552 4.17905 18.6675 4.17905C17.8798 4.17905 17.2412 4.81663 17.2412 5.60313C17.2412 6.38963 17.8798 7.02722 18.6675 7.02722Z" fill="white"/>
<path d="M23.5985 4.15526C23.2923 3.36551 22.8242 2.64832 22.2243 2.04959C21.6244 1.45086 20.9059 0.983787 20.1148 0.678268C19.1891 0.331305 18.2111 0.143696 17.2225 0.12343C15.9484 0.0679459 15.5449 0.0520935 12.3138 0.0520935C9.08284 0.0520935 8.66871 0.0520934 7.40515 0.12343C6.41731 0.14266 5.44003 0.330307 4.51551 0.678268C3.72421 0.983431 3.00554 1.45038 2.40561 2.04915C1.80568 2.64793 1.33773 3.3653 1.03179 4.15526C0.68422 5.07947 0.49675 6.05602 0.477414 7.04306C0.420521 8.3139 0.40332 8.71682 0.40332 11.9441C0.40332 15.1701 0.40332 15.581 0.477414 16.8452C0.49726 17.8333 0.683817 18.8083 1.03179 19.7343C1.33859 20.524 1.80699 21.2411 2.40707 21.8398C3.00714 22.4385 3.7257 22.9056 4.51683 23.2113C5.4396 23.5722 6.41729 23.7733 7.4078 23.8058C8.68194 23.8613 9.08549 23.8784 12.3165 23.8784C15.5475 23.8784 15.9616 23.8784 17.2252 23.8058C18.2137 23.7857 19.1916 23.5986 20.1175 23.2523C20.9084 22.946 21.6266 22.4786 22.2265 21.8797C22.8263 21.2808 23.2945 20.5636 23.6012 19.774C23.9492 18.8492 24.1357 17.8743 24.1556 16.8862C24.2125 15.6153 24.2297 15.2124 24.2297 11.9851C24.2297 8.75777 24.2297 8.34825 24.1556 7.08401C24.1402 6.08302 23.9517 5.0922 23.5985 4.15526ZM21.987 16.7474C21.9785 17.5088 21.8393 18.263 21.5755 18.9774C21.3768 19.4911 21.0726 19.9576 20.6825 20.3469C20.2924 20.7361 19.825 21.0396 19.3104 21.2377C18.6028 21.4998 17.8555 21.6388 17.1008 21.6485C15.8439 21.7066 15.4893 21.7212 12.2662 21.7212C9.0405 21.7212 8.71105 21.7212 7.43029 21.6485C6.67603 21.6393 5.92901 21.5003 5.22204 21.2377C4.70562 21.0408 4.23634 20.7379 3.84455 20.3486C3.45277 19.9592 3.14721 19.4921 2.94764 18.9774C2.68758 18.2707 2.54847 17.5253 2.53615 16.7725C2.47926 15.5176 2.46603 15.1635 2.46603 11.9455C2.46603 8.72607 2.46603 8.39713 2.53615 7.11703C2.54471 6.35614 2.68388 5.60235 2.94764 4.88843C3.35118 3.84613 4.17812 3.02576 5.22204 2.62681C5.92936 2.36543 6.67616 2.22648 7.43029 2.21596C8.68856 2.15916 9.04183 2.14331 12.2662 2.14331C15.4906 2.14331 15.8214 2.14331 17.1008 2.21596C17.8555 2.22503 18.603 2.36401 19.3104 2.62681C19.825 2.82532 20.2923 3.12907 20.6824 3.51855C21.0725 3.90803 21.3767 4.37464 21.5755 4.88843C21.8356 5.59513 21.9747 6.34047 21.987 7.09326C22.0439 8.34957 22.0585 8.70229 22.0585 11.9217C22.0585 15.1397 22.0585 15.4858 22.0016 16.7488H21.987V16.7474Z" fill="white"/>
</svg>
