<svg width="336" height="17" viewBox="0 0 336 17" fill="none" xmlns="http://www.w3.org/2000/svg">
<path d="M9.686 11.464C9.776 11.464 9.83 11.5 9.866 11.59L11.306 15.298C11.396 15.514 11.27 15.676 11.144 15.712C10.964 15.73 10.892 15.766 10.892 15.874C10.892 16 11.108 16 11.432 16.018C12.872 16.054 14.186 16.054 14.834 16.054C15.5 16.054 15.662 16.018 15.662 15.874C15.662 15.748 15.572 15.73 15.428 15.73C15.212 15.73 14.942 15.712 14.672 15.658C14.294 15.568 13.772 15.316 13.088 13.696C11.936 10.96 9.056 3.76 8.624 2.77C8.444 2.356 8.336 2.194 8.174 2.194C7.994 2.194 7.886 2.392 7.67 2.914L3.152 14.074C2.792 14.974 2.45 15.586 1.622 15.694C1.478 15.712 1.226 15.73 1.064 15.73C0.92 15.73 0.848 15.766 0.848 15.874C0.848 16.018 0.956 16.054 1.19 16.054C2.126 16.054 3.116 16 3.314 16C3.872 16 4.646 16.054 5.222 16.054C5.42 16.054 5.528 16.018 5.528 15.874C5.528 15.766 5.474 15.73 5.258 15.73H4.988C4.43 15.73 4.268 15.496 4.268 15.172C4.268 14.956 4.358 14.524 4.538 14.074L5.51 11.608C5.546 11.5 5.582 11.464 5.672 11.464H9.686ZM6.032 10.564C5.96 10.564 5.942 10.51 5.96 10.438L7.616 6.028C7.634 5.956 7.67 5.866 7.724 5.866C7.778 5.866 7.796 5.956 7.814 6.028L9.434 10.456C9.452 10.51 9.434 10.564 9.344 10.564H6.032ZM18.7297 16.252C19.5757 16.252 20.6197 16.162 21.3757 15.622C22.5277 14.812 22.9597 13.894 22.9597 12.76C22.9597 11.374 22.3117 10.204 20.2237 9.052L19.5757 8.692C18.1537 7.9 17.9017 7.36 17.9017 6.676C17.9017 5.632 18.9277 5.038 20.0617 5.038C21.0877 5.038 21.5917 5.47 21.8257 5.758C22.1677 6.154 22.2397 6.622 22.2397 6.766C22.2397 6.946 22.2937 7.036 22.4017 7.036C22.5277 7.036 22.5997 6.874 22.5997 6.55C22.5997 5.344 22.6537 4.912 22.6537 4.714C22.6537 4.606 22.5817 4.552 22.4377 4.516C22.0237 4.408 21.2137 4.264 20.1877 4.264C17.9917 4.264 16.1917 5.47 16.1917 7.342C16.1917 8.692 16.8037 9.718 18.6757 10.816L19.5937 11.356C20.9977 12.184 21.1597 12.85 21.1597 13.516C21.1597 14.596 20.3317 15.46 18.9637 15.46C17.9737 15.46 16.7857 15.082 16.4437 13.948C16.3537 13.678 16.2997 13.354 16.2997 13.156C16.2997 13.048 16.2817 12.904 16.1377 12.904C16.0117 12.904 15.9397 13.066 15.9397 13.3C15.9217 13.552 15.8497 14.506 15.8497 15.334C15.8497 15.676 15.9037 15.748 16.1557 15.856C16.8397 16.162 17.8117 16.252 18.7297 16.252ZM31.4924 16.252C35.5784 16.252 38.1344 13.498 38.1344 9.988C38.1344 6.478 35.6504 4.264 31.6544 4.264C26.8484 4.264 25.0124 7.648 25.0124 10.258C25.0124 12.976 26.8844 16.252 31.4924 16.252ZM32.1404 15.424C29.1524 15.424 27.3524 12.94 27.3524 9.79C27.3524 6.01 29.4224 5.074 31.1864 5.074C33.7424 5.074 35.7764 7.162 35.7764 10.546C35.7764 14.902 33.2564 15.424 32.1404 15.424ZM47.3171 16.252C48.3431 16.252 49.5491 16.162 50.1791 15.91C50.4491 15.802 50.5211 15.73 50.5931 15.46C50.7551 14.938 50.9351 13.606 50.9351 13.426C50.9351 13.3 50.8631 13.156 50.7551 13.156C50.6291 13.156 50.5931 13.228 50.5571 13.462C50.5031 13.75 50.2871 14.182 50.0171 14.488C49.3871 15.19 48.6131 15.298 47.2091 15.298C45.0851 15.298 42.2771 13.57 42.2771 9.934C42.2771 8.44 42.5651 6.964 43.7351 5.956C44.4551 5.344 45.3371 5.092 46.7231 5.092C48.1811 5.092 49.2431 5.47 49.7831 5.992C50.1791 6.388 50.3771 6.928 50.3951 7.414C50.3951 7.612 50.4311 7.738 50.5571 7.738C50.7011 7.738 50.7551 7.576 50.7731 7.36C50.7911 7.054 50.7911 6.208 50.8271 5.704C50.8631 5.164 50.8991 4.984 50.8991 4.858C50.8991 4.768 50.8451 4.696 50.6651 4.678C50.1971 4.624 49.6751 4.516 49.0811 4.426C48.3611 4.336 47.7671 4.264 46.7771 4.264C44.4191 4.264 42.9071 4.876 41.7551 5.884C40.2431 7.234 39.9011 9.034 39.9011 10.078C39.9011 11.554 40.3151 13.282 41.8811 14.596C43.3211 15.802 45.1571 16.252 47.3171 16.252ZM54.3205 11.608C54.3205 13.084 54.3205 14.308 54.2485 14.938C54.1945 15.388 54.1045 15.604 53.7805 15.676C53.6365 15.712 53.4565 15.73 53.2225 15.73C53.0245 15.73 52.9705 15.82 52.9705 15.892C52.9705 16 53.0785 16.054 53.2765 16.054C53.9065 16.054 54.9865 16 55.3465 16C55.7785 16 56.8585 16.054 57.9025 16.054C58.0825 16.054 58.2085 16 58.2085 15.892C58.2085 15.82 58.1365 15.73 57.9565 15.73C57.7225 15.73 57.3625 15.712 57.1465 15.676C56.6785 15.604 56.5705 15.37 56.5165 14.956C56.4445 14.308 56.4445 13.084 56.4445 11.608V8.908C56.4445 6.586 56.4445 6.154 56.4805 5.668C56.5165 5.128 56.6425 4.912 57.0745 4.84C57.2545 4.804 57.3805 4.786 57.5425 4.786C57.7045 4.786 57.7945 4.75 57.7945 4.606C57.7945 4.516 57.6685 4.48 57.4705 4.48C56.8585 4.48 55.8325 4.516 55.4365 4.516C54.9865 4.516 53.9065 4.48 53.3125 4.48C53.0605 4.48 52.9345 4.516 52.9345 4.606C52.9345 4.75 53.0245 4.786 53.1865 4.786C53.3845 4.786 53.5825 4.804 53.7625 4.858C54.1045 4.966 54.2665 5.146 54.3025 5.668C54.3205 6.154 54.3205 6.586 54.3205 8.908V11.608ZM66.0606 12.184C66.1326 12.184 66.1866 12.202 66.2226 12.292L67.4466 15.388C67.5186 15.568 67.4106 15.712 67.3026 15.73C67.1406 15.748 67.1046 15.802 67.1046 15.892C67.1046 16 67.2846 16 67.5726 16.018C68.9046 16.054 70.0566 16.054 70.6146 16.054C71.2086 16.054 71.2986 16.018 71.2986 15.892C71.2986 15.784 71.2266 15.73 71.0826 15.73C70.9026 15.73 70.7226 15.712 70.4886 15.676C70.2006 15.622 69.7506 15.424 69.1386 14.038C68.1306 11.716 65.4846 5.524 65.1066 4.678C64.9446 4.336 64.8726 4.192 64.6386 4.192C64.4766 4.192 64.3506 4.372 64.1706 4.804L60.0306 14.362C59.7066 15.136 59.4366 15.604 58.7166 15.712C58.5726 15.712 58.3926 15.73 58.2486 15.73C58.1226 15.73 58.0686 15.802 58.0686 15.892C58.0686 16.018 58.1586 16.054 58.3566 16.054C59.1846 16.054 60.0306 16 60.1926 16C60.6966 16 61.4346 16.054 61.9566 16.054C62.1186 16.054 62.2086 16.018 62.2086 15.892C62.2086 15.802 62.1726 15.73 61.9746 15.73H61.7406C61.2546 15.73 61.1106 15.568 61.1106 15.298C61.1106 15.118 61.1826 14.74 61.3446 14.362L62.1906 12.292C62.2266 12.202 62.2446 12.184 62.3346 12.184H66.0606ZM62.6586 11.338C62.6046 11.338 62.5686 11.302 62.6046 11.23L64.1346 7.414C64.1526 7.36 64.1706 7.27 64.2246 7.27C64.2606 7.27 64.2786 7.36 64.2966 7.414L65.7906 11.248C65.8086 11.302 65.7906 11.338 65.7186 11.338H62.6586ZM78.7116 16.252C79.7376 16.252 80.9436 16.162 81.5736 15.91C81.8436 15.802 81.9156 15.73 81.9876 15.46C82.1496 14.938 82.3296 13.606 82.3296 13.426C82.3296 13.3 82.2576 13.156 82.1496 13.156C82.0236 13.156 81.9876 13.228 81.9516 13.462C81.8976 13.75 81.6816 14.182 81.4116 14.488C80.7816 15.19 80.0076 15.298 78.6036 15.298C76.4796 15.298 73.6716 13.57 73.6716 9.934C73.6716 8.44 73.9596 6.964 75.1296 5.956C75.8496 5.344 76.7316 5.092 78.1176 5.092C79.5756 5.092 80.6376 5.47 81.1776 5.992C81.5736 6.388 81.7716 6.928 81.7896 7.414C81.7896 7.612 81.8256 7.738 81.9516 7.738C82.0956 7.738 82.1496 7.576 82.1676 7.36C82.1856 7.054 82.1856 6.208 82.2216 5.704C82.2576 5.164 82.2936 4.984 82.2936 4.858C82.2936 4.768 82.2396 4.696 82.0596 4.678C81.5916 4.624 81.0696 4.516 80.4756 4.426C79.7556 4.336 79.1616 4.264 78.1716 4.264C75.8136 4.264 74.3016 4.876 73.1496 5.884C71.6376 7.234 71.2956 9.034 71.2956 10.078C71.2956 11.554 71.7096 13.282 73.2756 14.596C74.7156 15.802 76.5516 16.252 78.7116 16.252ZM85.715 11.608C85.715 13.084 85.715 14.308 85.643 14.938C85.589 15.388 85.499 15.604 85.175 15.676C85.031 15.712 84.851 15.73 84.617 15.73C84.419 15.73 84.365 15.82 84.365 15.892C84.365 16 84.473 16.054 84.671 16.054C85.301 16.054 86.381 16 86.741 16C87.173 16 88.253 16.054 89.297 16.054C89.477 16.054 89.603 16 89.603 15.892C89.603 15.82 89.531 15.73 89.351 15.73C89.117 15.73 88.757 15.712 88.541 15.676C88.073 15.604 87.965 15.37 87.911 14.956C87.839 14.308 87.839 13.084 87.839 11.608V8.908C87.839 6.586 87.839 6.154 87.875 5.668C87.911 5.128 88.037 4.912 88.469 4.84C88.649 4.804 88.775 4.786 88.937 4.786C89.099 4.786 89.189 4.75 89.189 4.606C89.189 4.516 89.063 4.48 88.865 4.48C88.253 4.48 87.227 4.516 86.831 4.516C86.381 4.516 85.301 4.48 84.707 4.48C84.455 4.48 84.329 4.516 84.329 4.606C84.329 4.75 84.419 4.786 84.581 4.786C84.779 4.786 84.977 4.804 85.157 4.858C85.499 4.966 85.661 5.146 85.697 5.668C85.715 6.154 85.715 6.586 85.715 8.908V11.608ZM97.6213 16.252C101.707 16.252 104.263 13.498 104.263 9.988C104.263 6.478 101.779 4.264 97.7833 4.264C92.9773 4.264 91.1413 7.648 91.1413 10.258C91.1413 12.976 93.0133 16.252 97.6213 16.252ZM98.2693 15.424C95.2813 15.424 93.4813 12.94 93.4813 9.79C93.4813 6.01 95.5513 5.074 97.3153 5.074C99.8713 5.074 101.905 7.162 101.905 10.546C101.905 14.902 99.3853 15.424 98.2693 15.424ZM100.177 0.52C100.087 0.358 100.051 0.303999 99.9253 0.303999C99.8713 0.303999 99.7453 0.339999 99.5653 0.465999C99.2773 0.645999 97.3873 2.05 96.6673 2.734C96.5773 2.824 96.5053 2.896 96.5053 2.968C96.5053 3.04 96.5773 3.076 96.6133 3.076C96.6493 3.076 96.7753 3.004 96.9193 2.932C97.5853 2.572 99.0073 1.996 99.9973 1.87C100.357 1.834 100.519 1.87 100.609 1.87C100.699 1.87 100.807 1.816 100.699 1.6C100.483 1.114 100.321 0.772 100.177 0.52ZM108.023 7.72H108.077C108.383 7.99 110.057 9.844 111.785 11.5C113.441 13.102 115.421 14.992 116.411 15.91C116.573 16.072 116.789 16.234 117.059 16.234C117.185 16.234 117.311 16.09 117.311 15.748L117.491 6.1C117.509 5.236 117.635 4.966 118.067 4.84C118.265 4.786 118.391 4.786 118.553 4.786C118.733 4.786 118.823 4.714 118.823 4.624C118.823 4.498 118.679 4.48 118.463 4.48C117.689 4.48 117.095 4.516 116.915 4.516C116.573 4.516 115.727 4.48 114.899 4.48C114.665 4.48 114.503 4.498 114.503 4.624C114.503 4.714 114.557 4.786 114.755 4.786C114.971 4.786 115.349 4.786 115.583 4.876C115.961 5.02 116.105 5.29 116.123 6.226L116.285 13.03H116.213C115.979 12.814 113.873 10.654 112.793 9.592C110.489 7.342 108.113 4.912 107.915 4.714C107.645 4.444 107.429 4.21 107.231 4.21C107.069 4.21 106.961 4.426 106.961 4.732L106.817 13.804C106.799 15.136 106.745 15.55 106.331 15.658C106.115 15.712 105.827 15.73 105.611 15.73C105.467 15.73 105.359 15.802 105.359 15.892C105.359 16.036 105.503 16.054 105.719 16.054C106.529 16.054 107.285 16 107.429 16C107.717 16 108.455 16.054 109.481 16.054C109.697 16.054 109.841 16.018 109.841 15.892C109.841 15.802 109.751 15.73 109.571 15.73C109.319 15.73 109.013 15.712 108.743 15.622C108.437 15.514 108.239 15.154 108.203 13.966L108.023 7.72ZM127.744 11.608C127.744 13.012 127.744 14.218 127.672 14.866C127.618 15.316 127.528 15.604 127.204 15.676C127.06 15.712 126.88 15.73 126.646 15.73C126.448 15.73 126.394 15.82 126.394 15.892C126.394 16 126.502 16.054 126.7 16.054C127.024 16.054 127.42 16.036 127.798 16.018C128.176 16.018 128.518 16 128.698 16C129.094 16 129.67 16.036 130.3 16.09C130.93 16.126 131.614 16.18 132.19 16.18C135.106 16.18 136.78 15.1 137.5 14.38C138.4 13.498 139.228 12.04 139.228 10.114C139.228 8.296 138.526 7.018 137.734 6.226C136.006 4.48 133.342 4.48 131.362 4.48C130.408 4.48 129.274 4.516 128.788 4.516C128.338 4.516 127.33 4.48 126.502 4.48C126.268 4.48 126.142 4.516 126.142 4.624C126.142 4.732 126.25 4.786 126.412 4.786C126.646 4.786 126.916 4.804 127.042 4.84C127.546 4.984 127.69 5.146 127.726 5.668C127.744 6.154 127.744 6.586 127.744 8.908V11.608ZM129.868 8.674C129.868 7.468 129.868 6.208 129.886 5.686C129.886 5.506 129.94 5.434 130.084 5.38C130.21 5.308 130.732 5.272 131.056 5.272C132.298 5.272 134.026 5.434 135.484 6.73C136.186 7.342 136.96 8.602 136.96 10.546C136.96 12.13 136.636 13.498 135.61 14.344C134.656 15.136 133.594 15.388 132.154 15.388C130.912 15.388 130.282 15.064 130.084 14.776C129.958 14.614 129.922 14.074 129.904 13.696C129.886 13.39 129.868 12.22 129.868 10.6V8.674ZM142.528 11.608C142.528 13.012 142.528 14.218 142.456 14.866C142.402 15.316 142.312 15.604 141.988 15.676C141.844 15.712 141.664 15.73 141.43 15.73C141.232 15.73 141.178 15.82 141.178 15.892C141.178 16 141.286 16.054 141.484 16.054C141.808 16.054 142.204 16.036 142.582 16.018C142.96 16.018 143.302 16 143.482 16C143.95 16 144.544 16.018 145.318 16.036C146.092 16.072 147.046 16.09 148.234 16.09C148.828 16.09 148.972 16.09 149.08 15.694C149.17 15.388 149.296 14.344 149.296 14.002C149.296 13.84 149.278 13.642 149.152 13.642C149.044 13.642 149.008 13.714 148.972 13.876C148.864 14.506 148.684 14.83 148.288 15.01C147.874 15.19 147.208 15.208 146.794 15.208C145.174 15.208 144.688 14.974 144.652 13.93C144.634 13.48 144.652 12.184 144.652 11.662V10.438C144.652 10.348 144.67 10.276 144.742 10.276C145.138 10.276 146.938 10.312 147.226 10.348C147.82 10.402 148.018 10.636 148.108 10.942C148.144 11.14 148.144 11.338 148.162 11.5C148.162 11.572 148.198 11.626 148.306 11.626C148.45 11.626 148.468 11.41 148.468 11.284C148.468 11.176 148.504 10.564 148.54 10.258C148.63 9.484 148.666 9.232 148.666 9.142C148.666 9.052 148.612 8.98 148.54 8.98C148.468 8.98 148.414 9.07 148.288 9.178C148.126 9.322 147.91 9.376 147.532 9.412C147.172 9.448 145.12 9.448 144.76 9.448C144.67 9.448 144.652 9.376 144.652 9.286V5.506C144.652 5.416 144.688 5.362 144.76 5.362C145.084 5.362 146.974 5.398 147.244 5.434C148.036 5.506 148.162 5.722 148.288 5.992C148.378 6.172 148.396 6.442 148.396 6.55C148.396 6.676 148.414 6.748 148.522 6.748C148.648 6.748 148.684 6.568 148.702 6.496C148.738 6.316 148.774 5.65 148.792 5.488C148.828 4.786 148.918 4.606 148.918 4.498C148.918 4.426 148.9 4.354 148.81 4.354C148.738 4.354 148.648 4.408 148.558 4.426C148.432 4.444 148.18 4.498 147.892 4.516C147.586 4.534 144.076 4.516 143.572 4.516C143.122 4.516 142.114 4.48 141.286 4.48C141.052 4.48 140.926 4.516 140.926 4.624C140.926 4.732 141.034 4.786 141.196 4.786C141.43 4.786 141.7 4.804 141.826 4.84C142.33 4.984 142.474 5.146 142.51 5.668C142.528 6.154 142.528 6.586 142.528 8.908V11.608ZM158.655 10.834C158.655 12.49 158.655 13.912 158.565 14.668C158.493 15.19 158.403 15.586 158.043 15.658C157.881 15.694 157.665 15.73 157.395 15.73C157.179 15.73 157.107 15.784 157.107 15.874C157.107 16 157.233 16.054 157.467 16.054C157.827 16.054 158.295 16.018 158.709 16.018C159.141 16 159.537 16 159.735 16C160.185 16 160.815 16.054 161.499 16.108C162.183 16.162 162.921 16.216 163.569 16.216C166.899 16.216 168.771 14.938 169.599 14.092C170.607 13.066 171.561 11.338 171.561 9.07C171.561 6.928 170.715 5.434 169.815 4.498C167.853 2.446 164.847 2.446 162.597 2.446C161.517 2.446 160.383 2.5 159.825 2.5C159.321 2.5 158.187 2.446 157.233 2.446C156.963 2.446 156.837 2.482 156.837 2.608C156.837 2.734 156.945 2.77 157.143 2.77C157.395 2.77 157.701 2.788 157.845 2.824C158.439 2.95 158.583 3.238 158.619 3.85C158.655 4.426 158.655 4.93 158.655 7.666V10.834ZM160.905 7.378C160.905 5.956 160.905 4.39 160.923 3.778C160.923 3.58 160.977 3.49 161.139 3.418C161.283 3.346 161.949 3.292 162.309 3.292C163.713 3.292 165.765 3.508 167.421 5.092C168.195 5.83 169.149 7.306 169.149 9.592C169.149 11.446 168.789 13.084 167.637 14.074C166.557 15.01 165.333 15.37 163.497 15.37C162.075 15.37 161.373 14.992 161.139 14.65C160.995 14.452 160.959 13.732 160.941 13.282C160.923 12.94 160.905 11.554 160.905 9.646V7.378ZM174.414 11.608C174.414 13.084 174.414 14.308 174.342 14.938C174.288 15.388 174.198 15.604 173.874 15.676C173.73 15.712 173.55 15.73 173.316 15.73C173.118 15.73 173.064 15.82 173.064 15.892C173.064 16 173.172 16.054 173.37 16.054C174 16.054 175.08 16 175.44 16C175.872 16 176.952 16.054 177.996 16.054C178.176 16.054 178.302 16 178.302 15.892C178.302 15.82 178.23 15.73 178.05 15.73C177.816 15.73 177.456 15.712 177.24 15.676C176.772 15.604 176.664 15.37 176.61 14.956C176.538 14.308 176.538 13.084 176.538 11.608V8.908C176.538 6.586 176.538 6.154 176.574 5.668C176.61 5.128 176.736 4.912 177.168 4.84C177.348 4.804 177.474 4.786 177.636 4.786C177.798 4.786 177.888 4.75 177.888 4.606C177.888 4.516 177.762 4.48 177.564 4.48C176.952 4.48 175.926 4.516 175.53 4.516C175.08 4.516 174 4.48 173.406 4.48C173.154 4.48 173.028 4.516 173.028 4.606C173.028 4.75 173.118 4.786 173.28 4.786C173.478 4.786 173.676 4.804 173.856 4.858C174.198 4.966 174.36 5.146 174.396 5.668C174.414 6.154 174.414 6.586 174.414 8.908V11.608ZM186.154 12.184C186.226 12.184 186.28 12.202 186.316 12.292L187.54 15.388C187.612 15.568 187.504 15.712 187.396 15.73C187.234 15.748 187.198 15.802 187.198 15.892C187.198 16 187.378 16 187.666 16.018C188.998 16.054 190.15 16.054 190.708 16.054C191.302 16.054 191.392 16.018 191.392 15.892C191.392 15.784 191.32 15.73 191.176 15.73C190.996 15.73 190.816 15.712 190.582 15.676C190.294 15.622 189.844 15.424 189.232 14.038C188.224 11.716 185.578 5.524 185.2 4.678C185.038 4.336 184.966 4.192 184.732 4.192C184.57 4.192 184.444 4.372 184.264 4.804L180.124 14.362C179.8 15.136 179.53 15.604 178.81 15.712C178.666 15.712 178.486 15.73 178.342 15.73C178.216 15.73 178.162 15.802 178.162 15.892C178.162 16.018 178.252 16.054 178.45 16.054C179.278 16.054 180.124 16 180.286 16C180.79 16 181.528 16.054 182.05 16.054C182.212 16.054 182.302 16.018 182.302 15.892C182.302 15.802 182.266 15.73 182.068 15.73H181.834C181.348 15.73 181.204 15.568 181.204 15.298C181.204 15.118 181.276 14.74 181.438 14.362L182.284 12.292C182.32 12.202 182.338 12.184 182.428 12.184H186.154ZM182.752 11.338C182.698 11.338 182.662 11.302 182.698 11.23L184.228 7.414C184.246 7.36 184.264 7.27 184.318 7.27C184.354 7.27 184.372 7.36 184.39 7.414L185.884 11.248C185.902 11.302 185.884 11.338 185.812 11.338H182.752ZM193.117 11.608C193.117 13.012 193.117 14.218 193.045 14.866C192.991 15.316 192.901 15.604 192.577 15.676C192.433 15.712 192.253 15.73 192.019 15.73C191.821 15.73 191.767 15.82 191.767 15.892C191.767 16 191.875 16.054 192.073 16.054C192.397 16.054 192.793 16.036 193.171 16.018C193.549 16.018 193.891 16 194.071 16C194.323 16 194.881 16.018 195.421 16.036C195.961 16.072 196.501 16.09 196.681 16.09C199.597 16.09 200.893 14.398 200.893 12.76C200.893 10.96 199.273 9.862 197.977 9.448C198.877 8.872 199.759 7.954 199.759 6.766C199.759 5.956 199.255 4.48 196.393 4.48C195.853 4.48 194.809 4.516 194.017 4.516C193.711 4.516 192.703 4.48 191.875 4.48C191.641 4.48 191.515 4.516 191.515 4.624C191.515 4.732 191.623 4.786 191.785 4.786C192.019 4.786 192.289 4.804 192.415 4.84C192.919 4.984 193.063 5.146 193.099 5.668C193.117 6.154 193.117 6.586 193.117 8.908V11.608ZM195.169 5.47C195.169 5.308 195.205 5.236 195.313 5.218C195.475 5.182 195.781 5.182 195.997 5.182C197.365 5.182 197.977 6.46 197.977 7.486C197.977 8.224 197.671 8.782 197.257 9.106C196.987 9.322 196.537 9.376 196.015 9.376C195.655 9.376 195.421 9.358 195.277 9.322C195.223 9.304 195.169 9.286 195.169 9.16V5.47ZM195.169 10.186C195.169 10.096 195.205 10.078 195.259 10.078H195.943C196.555 10.078 196.987 10.24 197.311 10.474C198.499 11.284 198.805 12.49 198.805 13.192C198.805 14.884 197.707 15.352 196.861 15.352C196.501 15.352 196.141 15.334 195.727 15.172C195.223 14.974 195.169 14.668 195.169 13.66V10.186ZM203.91 11.608C203.91 13.012 203.91 14.218 203.838 14.866C203.784 15.316 203.694 15.604 203.37 15.676C203.226 15.712 203.046 15.73 202.812 15.73C202.614 15.73 202.56 15.82 202.56 15.892C202.56 16 202.668 16.054 202.866 16.054C203.19 16.054 203.586 16.036 203.964 16.018C204.342 16.018 204.684 16 204.864 16C205.332 16 205.926 16.018 206.7 16.036C207.474 16.072 208.428 16.09 209.616 16.09C210.21 16.09 210.354 16.09 210.462 15.694C210.552 15.388 210.678 14.344 210.678 14.002C210.678 13.84 210.66 13.642 210.534 13.642C210.426 13.642 210.39 13.714 210.354 13.876C210.246 14.506 210.066 14.83 209.67 15.01C209.256 15.19 208.59 15.208 208.176 15.208C206.556 15.208 206.07 14.974 206.034 13.93C206.016 13.48 206.034 12.184 206.034 11.662V10.438C206.034 10.348 206.052 10.276 206.124 10.276C206.52 10.276 208.32 10.312 208.608 10.348C209.202 10.402 209.4 10.636 209.49 10.942C209.526 11.14 209.526 11.338 209.544 11.5C209.544 11.572 209.58 11.626 209.688 11.626C209.832 11.626 209.85 11.41 209.85 11.284C209.85 11.176 209.886 10.564 209.922 10.258C210.012 9.484 210.048 9.232 210.048 9.142C210.048 9.052 209.994 8.98 209.922 8.98C209.85 8.98 209.796 9.07 209.67 9.178C209.508 9.322 209.292 9.376 208.914 9.412C208.554 9.448 206.502 9.448 206.142 9.448C206.052 9.448 206.034 9.376 206.034 9.286V5.506C206.034 5.416 206.07 5.362 206.142 5.362C206.466 5.362 208.356 5.398 208.626 5.434C209.418 5.506 209.544 5.722 209.67 5.992C209.76 6.172 209.778 6.442 209.778 6.55C209.778 6.676 209.796 6.748 209.904 6.748C210.03 6.748 210.066 6.568 210.084 6.496C210.12 6.316 210.156 5.65 210.174 5.488C210.21 4.786 210.3 4.606 210.3 4.498C210.3 4.426 210.282 4.354 210.192 4.354C210.12 4.354 210.03 4.408 209.94 4.426C209.814 4.444 209.562 4.498 209.274 4.516C208.968 4.534 205.458 4.516 204.954 4.516C204.504 4.516 203.496 4.48 202.668 4.48C202.434 4.48 202.308 4.516 202.308 4.624C202.308 4.732 202.416 4.786 202.578 4.786C202.812 4.786 203.082 4.804 203.208 4.84C203.712 4.984 203.856 5.146 203.892 5.668C203.91 6.154 203.91 6.586 203.91 8.908V11.608ZM216.387 11.608C216.387 13.012 216.387 14.218 216.315 14.866C216.261 15.316 216.171 15.604 215.847 15.676C215.721 15.712 215.523 15.73 215.289 15.73C215.091 15.73 215.037 15.82 215.037 15.892C215.037 16 215.145 16.054 215.343 16.054C215.973 16.054 217.053 16 217.413 16C217.863 16 218.925 16.054 219.969 16.054C220.149 16.054 220.275 16 220.275 15.892C220.275 15.82 220.203 15.73 220.023 15.73C219.789 15.73 219.429 15.712 219.213 15.676C218.745 15.604 218.655 15.316 218.601 14.884C218.529 14.218 218.511 13.012 218.511 11.608V5.416L220.509 5.452C221.931 5.47 222.345 5.938 222.381 6.334L222.399 6.496C222.417 6.73 222.453 6.802 222.579 6.802C222.669 6.802 222.705 6.712 222.723 6.55C222.723 6.154 222.759 5.02 222.759 4.696C222.759 4.462 222.741 4.372 222.633 4.372C222.579 4.372 222.453 4.408 222.201 4.444C221.967 4.48 221.625 4.516 221.121 4.516H214.695C214.173 4.516 213.579 4.498 213.111 4.444C212.715 4.39 212.553 4.264 212.427 4.264C212.337 4.264 212.283 4.354 212.247 4.552C212.211 4.678 211.905 6.154 211.905 6.406C211.905 6.568 211.941 6.658 212.049 6.658C212.157 6.658 212.193 6.586 212.229 6.46C212.265 6.352 212.337 6.154 212.499 5.938C212.733 5.596 213.111 5.488 214.029 5.47L216.387 5.416V11.608ZM225.672 11.608C225.672 13.012 225.672 14.218 225.6 14.866C225.546 15.316 225.456 15.604 225.132 15.676C224.988 15.712 224.808 15.73 224.574 15.73C224.376 15.73 224.322 15.82 224.322 15.892C224.322 16 224.43 16.054 224.628 16.054C224.952 16.054 225.348 16.036 225.726 16.018C226.104 16.018 226.446 16 226.626 16C227.094 16 227.688 16.018 228.462 16.036C229.236 16.072 230.19 16.09 231.378 16.09C231.972 16.09 232.116 16.09 232.224 15.694C232.314 15.388 232.44 14.344 232.44 14.002C232.44 13.84 232.422 13.642 232.296 13.642C232.188 13.642 232.152 13.714 232.116 13.876C232.008 14.506 231.828 14.83 231.432 15.01C231.018 15.19 230.352 15.208 229.938 15.208C228.318 15.208 227.832 14.974 227.796 13.93C227.778 13.48 227.796 12.184 227.796 11.662V10.438C227.796 10.348 227.814 10.276 227.886 10.276C228.282 10.276 230.082 10.312 230.37 10.348C230.964 10.402 231.162 10.636 231.252 10.942C231.288 11.14 231.288 11.338 231.306 11.5C231.306 11.572 231.342 11.626 231.45 11.626C231.594 11.626 231.612 11.41 231.612 11.284C231.612 11.176 231.648 10.564 231.684 10.258C231.774 9.484 231.81 9.232 231.81 9.142C231.81 9.052 231.756 8.98 231.684 8.98C231.612 8.98 231.558 9.07 231.432 9.178C231.27 9.322 231.054 9.376 230.676 9.412C230.316 9.448 228.264 9.448 227.904 9.448C227.814 9.448 227.796 9.376 227.796 9.286V5.506C227.796 5.416 227.832 5.362 227.904 5.362C228.228 5.362 230.118 5.398 230.388 5.434C231.18 5.506 231.306 5.722 231.432 5.992C231.522 6.172 231.54 6.442 231.54 6.55C231.54 6.676 231.558 6.748 231.666 6.748C231.792 6.748 231.828 6.568 231.846 6.496C231.882 6.316 231.918 5.65 231.936 5.488C231.972 4.786 232.062 4.606 232.062 4.498C232.062 4.426 232.044 4.354 231.954 4.354C231.882 4.354 231.792 4.408 231.702 4.426C231.576 4.444 231.324 4.498 231.036 4.516C230.73 4.534 227.22 4.516 226.716 4.516C226.266 4.516 225.258 4.48 224.43 4.48C224.196 4.48 224.07 4.516 224.07 4.624C224.07 4.732 224.178 4.786 224.34 4.786C224.574 4.786 224.844 4.804 224.97 4.84C225.474 4.984 225.618 5.146 225.654 5.668C225.672 6.154 225.672 6.586 225.672 8.908V11.608ZM237.753 16.252C238.599 16.252 239.643 16.162 240.399 15.622C241.551 14.812 241.983 13.894 241.983 12.76C241.983 11.374 241.335 10.204 239.247 9.052L238.599 8.692C237.177 7.9 236.925 7.36 236.925 6.676C236.925 5.632 237.951 5.038 239.085 5.038C240.111 5.038 240.615 5.47 240.849 5.758C241.191 6.154 241.263 6.622 241.263 6.766C241.263 6.946 241.317 7.036 241.425 7.036C241.551 7.036 241.623 6.874 241.623 6.55C241.623 5.344 241.677 4.912 241.677 4.714C241.677 4.606 241.605 4.552 241.461 4.516C241.047 4.408 240.237 4.264 239.211 4.264C237.015 4.264 235.215 5.47 235.215 7.342C235.215 8.692 235.827 9.718 237.699 10.816L238.617 11.356C240.021 12.184 240.183 12.85 240.183 13.516C240.183 14.596 239.355 15.46 237.987 15.46C236.997 15.46 235.809 15.082 235.467 13.948C235.377 13.678 235.323 13.354 235.323 13.156C235.323 13.048 235.305 12.904 235.161 12.904C235.035 12.904 234.963 13.066 234.963 13.3C234.945 13.552 234.873 14.506 234.873 15.334C234.873 15.676 234.927 15.748 235.179 15.856C235.863 16.162 236.835 16.252 237.753 16.252ZM251.16 11.608C251.16 13.012 251.16 14.218 251.088 14.866C251.034 15.316 250.944 15.604 250.62 15.676C250.476 15.712 250.296 15.73 250.062 15.73C249.864 15.73 249.81 15.82 249.81 15.892C249.81 16 249.918 16.054 250.116 16.054C250.44 16.054 250.836 16.036 251.214 16.018C251.592 16.018 251.934 16 252.114 16C252.51 16 253.086 16.036 253.716 16.09C254.346 16.126 255.03 16.18 255.606 16.18C258.522 16.18 260.196 15.1 260.916 14.38C261.816 13.498 262.644 12.04 262.644 10.114C262.644 8.296 261.942 7.018 261.15 6.226C259.422 4.48 256.758 4.48 254.778 4.48C253.824 4.48 252.69 4.516 252.204 4.516C251.754 4.516 250.746 4.48 249.918 4.48C249.684 4.48 249.558 4.516 249.558 4.624C249.558 4.732 249.666 4.786 249.828 4.786C250.062 4.786 250.332 4.804 250.458 4.84C250.962 4.984 251.106 5.146 251.142 5.668C251.16 6.154 251.16 6.586 251.16 8.908V11.608ZM253.284 8.674C253.284 7.468 253.284 6.208 253.302 5.686C253.302 5.506 253.356 5.434 253.5 5.38C253.626 5.308 254.148 5.272 254.472 5.272C255.714 5.272 257.442 5.434 258.9 6.73C259.602 7.342 260.376 8.602 260.376 10.546C260.376 12.13 260.052 13.498 259.026 14.344C258.072 15.136 257.01 15.388 255.57 15.388C254.328 15.388 253.698 15.064 253.5 14.776C253.374 14.614 253.338 14.074 253.32 13.696C253.302 13.39 253.284 12.22 253.284 10.6V8.674ZM265.944 11.608C265.944 13.012 265.944 14.218 265.872 14.866C265.818 15.316 265.728 15.604 265.404 15.676C265.26 15.712 265.08 15.73 264.846 15.73C264.648 15.73 264.594 15.82 264.594 15.892C264.594 16 264.702 16.054 264.9 16.054C265.224 16.054 265.62 16.036 265.998 16.018C266.376 16.018 266.718 16 266.898 16C267.366 16 267.96 16.018 268.734 16.036C269.508 16.072 270.462 16.09 271.65 16.09C272.244 16.09 272.388 16.09 272.496 15.694C272.586 15.388 272.712 14.344 272.712 14.002C272.712 13.84 272.694 13.642 272.568 13.642C272.46 13.642 272.424 13.714 272.388 13.876C272.28 14.506 272.1 14.83 271.704 15.01C271.29 15.19 270.624 15.208 270.21 15.208C268.59 15.208 268.104 14.974 268.068 13.93C268.05 13.48 268.068 12.184 268.068 11.662V10.438C268.068 10.348 268.086 10.276 268.158 10.276C268.554 10.276 270.354 10.312 270.642 10.348C271.236 10.402 271.434 10.636 271.524 10.942C271.56 11.14 271.56 11.338 271.578 11.5C271.578 11.572 271.614 11.626 271.722 11.626C271.866 11.626 271.884 11.41 271.884 11.284C271.884 11.176 271.92 10.564 271.956 10.258C272.046 9.484 272.082 9.232 272.082 9.142C272.082 9.052 272.028 8.98 271.956 8.98C271.884 8.98 271.83 9.07 271.704 9.178C271.542 9.322 271.326 9.376 270.948 9.412C270.588 9.448 268.536 9.448 268.176 9.448C268.086 9.448 268.068 9.376 268.068 9.286V5.506C268.068 5.416 268.104 5.362 268.176 5.362C268.5 5.362 270.39 5.398 270.66 5.434C271.452 5.506 271.578 5.722 271.704 5.992C271.794 6.172 271.812 6.442 271.812 6.55C271.812 6.676 271.83 6.748 271.938 6.748C272.064 6.748 272.1 6.568 272.118 6.496C272.154 6.316 272.19 5.65 272.208 5.488C272.244 4.786 272.334 4.606 272.334 4.498C272.334 4.426 272.316 4.354 272.226 4.354C272.154 4.354 272.064 4.408 271.974 4.426C271.848 4.444 271.596 4.498 271.308 4.516C271.002 4.534 267.492 4.516 266.988 4.516C266.538 4.516 265.53 4.48 264.702 4.48C264.468 4.48 264.342 4.516 264.342 4.624C264.342 4.732 264.45 4.786 264.612 4.786C264.846 4.786 265.116 4.804 265.242 4.84C265.746 4.984 265.89 5.146 265.926 5.668C265.944 6.154 265.944 6.586 265.944 8.908V11.608ZM278.087 8.908C278.087 6.586 278.087 6.154 278.123 5.668C278.159 5.128 278.285 4.912 278.717 4.84C278.897 4.804 279.149 4.786 279.329 4.786C279.527 4.786 279.617 4.732 279.617 4.624C279.617 4.516 279.509 4.48 279.275 4.48C278.663 4.48 277.367 4.516 276.989 4.516C276.557 4.516 275.549 4.48 274.811 4.48C274.577 4.48 274.469 4.516 274.469 4.624C274.469 4.732 274.559 4.786 274.739 4.786C274.937 4.786 275.135 4.804 275.261 4.84C275.765 4.984 275.909 5.146 275.945 5.668C275.963 6.154 275.963 6.586 275.963 8.908V11.608C275.963 13.012 275.963 14.218 275.891 14.866C275.837 15.316 275.747 15.604 275.423 15.676C275.279 15.712 275.099 15.73 274.865 15.73C274.667 15.73 274.613 15.82 274.613 15.892C274.613 16 274.721 16.054 274.919 16.054C275.243 16.054 275.639 16.036 276.017 16.018C276.395 16.018 276.737 16 276.917 16C277.565 16 278.231 16.018 279.023 16.036C279.815 16.072 280.733 16.09 281.867 16.09C282.695 16.09 282.767 16.018 282.875 15.676C283.001 15.226 283.109 14.092 283.109 13.912C283.109 13.732 283.073 13.57 282.965 13.57C282.839 13.57 282.803 13.66 282.785 13.804C282.749 14.092 282.587 14.524 282.389 14.722C281.993 15.136 281.381 15.154 280.535 15.154C279.311 15.154 278.699 15.064 278.429 14.83C278.087 14.542 278.087 13.57 278.087 11.608V8.908ZM291.651 10.834C291.651 12.49 291.651 13.912 291.561 14.668C291.489 15.19 291.399 15.586 291.039 15.658C290.877 15.694 290.661 15.73 290.391 15.73C290.175 15.73 290.103 15.784 290.103 15.874C290.103 16 290.229 16.054 290.463 16.054C291.183 16.054 292.317 16 292.731 16C293.199 16 294.333 16.054 295.521 16.054C295.719 16.054 295.863 16 295.863 15.874C295.863 15.784 295.773 15.73 295.575 15.73C295.305 15.73 294.909 15.694 294.657 15.658C294.117 15.586 294.009 15.19 293.955 14.686C293.865 13.912 293.865 12.49 293.865 10.834V3.634C293.865 3.436 293.919 3.328 294.009 3.292C294.171 3.238 294.441 3.22 294.711 3.22C295.125 3.22 295.863 3.328 296.511 3.922C297.519 4.822 297.573 6.028 297.573 6.622C297.573 8.458 296.169 9.592 295.161 9.592C294.783 9.592 294.657 9.646 294.657 9.79C294.657 9.916 294.783 9.934 294.873 9.952C294.963 9.97 295.161 9.97 295.251 9.97C297.807 9.97 299.679 8.17 299.679 5.614C299.679 4.66 299.175 3.85 298.779 3.472C298.491 3.202 297.681 2.446 295.431 2.446C294.603 2.446 293.559 2.5 292.821 2.5C292.317 2.5 291.183 2.446 290.229 2.446C289.959 2.446 289.833 2.482 289.833 2.608C289.833 2.734 289.941 2.77 290.139 2.77C290.391 2.77 290.697 2.788 290.841 2.824C291.435 2.95 291.579 3.238 291.615 3.85C291.651 4.426 291.651 4.93 291.651 7.666V10.834ZM303.086 11.608C303.086 13.012 303.086 14.218 303.014 14.866C302.96 15.316 302.87 15.604 302.546 15.676C302.402 15.712 302.222 15.73 301.988 15.73C301.79 15.73 301.736 15.82 301.736 15.892C301.736 16 301.844 16.054 302.042 16.054C302.366 16.054 302.762 16.036 303.14 16.018C303.518 16.018 303.86 16 304.04 16C304.508 16 305.102 16.018 305.876 16.036C306.65 16.072 307.604 16.09 308.792 16.09C309.386 16.09 309.53 16.09 309.638 15.694C309.728 15.388 309.854 14.344 309.854 14.002C309.854 13.84 309.836 13.642 309.71 13.642C309.602 13.642 309.566 13.714 309.53 13.876C309.422 14.506 309.242 14.83 308.846 15.01C308.432 15.19 307.766 15.208 307.352 15.208C305.732 15.208 305.246 14.974 305.21 13.93C305.192 13.48 305.21 12.184 305.21 11.662V10.438C305.21 10.348 305.228 10.276 305.3 10.276C305.696 10.276 307.496 10.312 307.784 10.348C308.378 10.402 308.576 10.636 308.666 10.942C308.702 11.14 308.702 11.338 308.72 11.5C308.72 11.572 308.756 11.626 308.864 11.626C309.008 11.626 309.026 11.41 309.026 11.284C309.026 11.176 309.062 10.564 309.098 10.258C309.188 9.484 309.224 9.232 309.224 9.142C309.224 9.052 309.17 8.98 309.098 8.98C309.026 8.98 308.972 9.07 308.846 9.178C308.684 9.322 308.468 9.376 308.09 9.412C307.73 9.448 305.678 9.448 305.318 9.448C305.228 9.448 305.21 9.376 305.21 9.286V5.506C305.21 5.416 305.246 5.362 305.318 5.362C305.642 5.362 307.532 5.398 307.802 5.434C308.594 5.506 308.72 5.722 308.846 5.992C308.936 6.172 308.954 6.442 308.954 6.55C308.954 6.676 308.972 6.748 309.08 6.748C309.206 6.748 309.242 6.568 309.26 6.496C309.296 6.316 309.332 5.65 309.35 5.488C309.386 4.786 309.476 4.606 309.476 4.498C309.476 4.426 309.458 4.354 309.368 4.354C309.296 4.354 309.206 4.408 309.116 4.426C308.99 4.444 308.738 4.498 308.45 4.516C308.144 4.534 304.634 4.516 304.13 4.516C303.68 4.516 302.672 4.48 301.844 4.48C301.61 4.48 301.484 4.516 301.484 4.624C301.484 4.732 301.592 4.786 301.754 4.786C301.988 4.786 302.258 4.804 302.384 4.84C302.888 4.984 303.032 5.146 303.068 5.668C303.086 6.154 303.086 6.586 303.086 8.908V11.608ZM313.106 11.608C313.106 13.012 313.106 14.218 313.034 14.866C312.98 15.316 312.89 15.604 312.566 15.676C312.422 15.712 312.242 15.73 312.008 15.73C311.81 15.73 311.756 15.82 311.756 15.892C311.756 16 311.864 16.054 312.062 16.054C312.692 16.054 313.7 16 314.006 16C314.24 16 315.554 16.054 316.472 16.054C316.67 16.054 316.796 16 316.796 15.892C316.796 15.82 316.724 15.73 316.598 15.73C316.4 15.73 316.058 15.712 315.824 15.676C315.338 15.604 315.266 15.316 315.212 14.866C315.14 14.218 315.122 13.03 315.122 11.608V11.392C315.122 11.302 315.176 11.266 315.248 11.266L316.67 11.302C316.778 11.302 316.868 11.32 316.958 11.41C317.156 11.644 317.822 12.67 318.452 13.498C319.334 14.686 319.928 15.406 320.612 15.748C321.026 15.964 321.458 16.054 322.34 16.054H323.852C324.05 16.054 324.158 16.018 324.158 15.892C324.158 15.82 324.086 15.73 323.96 15.73C323.834 15.73 323.744 15.73 323.582 15.694C323.33 15.64 322.772 15.568 321.89 14.686C320.936 13.732 319.82 12.346 318.416 10.618C319.964 9.376 320.612 8.368 320.612 7.234C320.612 6.208 319.946 5.434 319.496 5.128C318.65 4.57 317.498 4.48 316.49 4.48C316.004 4.48 314.564 4.516 314.024 4.516C313.7 4.516 312.692 4.48 311.864 4.48C311.63 4.48 311.504 4.516 311.504 4.624C311.504 4.732 311.612 4.786 311.774 4.786C312.008 4.786 312.278 4.804 312.404 4.84C312.908 4.984 313.052 5.146 313.088 5.668C313.106 6.154 313.106 6.586 313.106 8.908V11.608ZM315.122 5.542C315.122 5.416 315.158 5.362 315.266 5.326C315.428 5.29 315.806 5.272 316.202 5.272C317.138 5.272 318.614 5.83 318.614 7.99C318.614 9.25 318.074 9.916 317.588 10.258C317.318 10.456 317.102 10.51 316.472 10.51C316.076 10.51 315.608 10.474 315.266 10.366C315.158 10.312 315.122 10.258 315.122 10.096V5.542ZM324.674 11.158C324.674 13.372 325.304 14.506 326.114 15.208C327.266 16.216 328.904 16.252 329.732 16.252C330.758 16.252 331.964 16.09 333.08 15.154C334.412 14.056 334.592 12.256 334.592 10.546V8.908C334.592 6.586 334.61 6.154 334.628 5.668C334.664 5.128 334.772 4.912 335.204 4.84C335.402 4.804 335.492 4.786 335.672 4.786C335.852 4.786 335.942 4.732 335.942 4.624C335.942 4.516 335.834 4.48 335.618 4.48C335.006 4.48 333.944 4.516 333.764 4.516C333.746 4.516 332.684 4.48 331.874 4.48C331.658 4.48 331.55 4.516 331.55 4.624C331.55 4.732 331.64 4.786 331.82 4.786C332 4.786 332.27 4.804 332.396 4.84C332.9 4.984 333.026 5.146 333.062 5.668C333.08 6.154 333.098 6.586 333.098 8.908V10.834C333.098 12.4 333.062 13.732 332.18 14.56C331.55 15.172 330.74 15.37 330.056 15.37C329.516 15.37 328.76 15.316 328.058 14.758C327.284 14.146 326.852 13.282 326.852 11.05V8.908C326.852 6.586 326.852 6.154 326.888 5.668C326.924 5.128 327.05 4.912 327.464 4.84C327.662 4.804 327.752 4.786 327.932 4.786C328.094 4.786 328.184 4.732 328.184 4.624C328.184 4.516 328.076 4.48 327.842 4.48C327.266 4.48 326.204 4.516 325.808 4.516C325.34 4.516 324.278 4.48 323.432 4.48C323.198 4.48 323.09 4.516 323.09 4.624C323.09 4.732 323.18 4.786 323.36 4.786C323.576 4.786 323.846 4.804 323.972 4.84C324.476 4.984 324.62 5.128 324.656 5.668C324.692 6.154 324.674 6.586 324.674 8.908V11.158ZM332.072 0.52C331.982 0.358 331.946 0.303999 331.82 0.303999C331.766 0.303999 331.64 0.339999 331.46 0.465999C331.172 0.645999 329.282 2.05 328.562 2.734C328.472 2.824 328.4 2.896 328.4 2.968C328.4 3.04 328.472 3.076 328.508 3.076C328.544 3.076 328.67 3.004 328.814 2.932C329.48 2.572 330.902 1.996 331.892 1.87C332.252 1.834 332.414 1.87 332.504 1.87C332.594 1.87 332.702 1.816 332.594 1.6C332.378 1.114 332.216 0.772 332.072 0.52Z" fill="white"/>
</svg>
