<svg width="82" height="13" viewBox="0 0 82 13" fill="none" xmlns="http://www.w3.org/2000/svg">
<path d="M70.0592 12.751C70.8784 12.7154 71.6264 12.3592 72.125 11.8249C72.125 11.8249 72.4812 11.4688 72.9442 11.0057C73.1935 10.7564 73.5497 10.5427 73.9415 10.5071C74.0127 10.5071 74.1908 10.5071 74.2264 10.5071C74.3689 10.5071 74.5114 10.5071 74.6538 10.5427C75.0812 10.5783 75.473 10.7208 75.8648 10.8989L79.4265 12.3592C79.4265 12.3592 80.2814 12.751 80.9937 12.751H81.528C81.706 12.751 81.8129 12.6085 81.8129 12.4304V11.1126C81.8129 10.2222 81.2786 9.36734 80.3882 8.97555L79.6046 8.655C78.9635 8.40568 78.2512 7.94265 77.895 7.58648C77.895 7.58648 77.1827 6.73166 78.0018 5.91247L81.1362 2.74253C81.5636 2.31512 81.7773 1.74525 81.7773 1.17537C81.7773 1.17537 81.7773 0.926049 81.706 0.712345C81.6704 0.534259 81.528 0.39179 81.4567 0.320555C81.243 0.106852 80.9937 0 80.6375 0H80.1389C79.3197 0.0356173 78.5717 0.39179 78.0731 0.890432C78.0375 0.926049 76.0073 2.99185 75.4374 3.52611L72.5524 6.44673V1.92333C72.5524 0.890432 71.7332 0.0712345 70.7003 0.0712345H69.8811C69.6674 0.0712345 69.3469 0.0712345 69.2044 0.142469C69.0975 0.213704 69.0975 0.320555 69.0975 0.463025V12.466C69.0975 12.6085 69.2044 12.751 69.3825 12.751H70.0592Z" fill="#EB3C96"/>
<path d="M55.064 11.2195C55.064 11.2195 54.3873 11.0414 53.0695 9.97289C52.3927 9.43863 51.8941 9.04684 51.6804 8.86875C51.9297 8.72628 52.7133 8.40573 53.4613 7.55091C53.9243 7.05227 54.138 6.37554 54.138 5.59196C54.138 4.844 53.9243 4.13166 53.4969 3.45493C53.0695 2.7782 52.4996 2.20832 51.7873 1.70968C51.1105 1.21104 50.2913 0.819251 49.4365 0.534313C48.5461 0.213758 47.7269 0.0712891 46.8721 0.0712891C46.8721 0.0712891 41.7788 0.0712891 41.7432 0.0712891C41.6007 0.0712891 41.4583 0.178141 41.4583 0.356227V8.93999V10.8633V11.5044V12.3592C41.4583 12.5017 41.4583 12.6086 41.5651 12.6798C41.7076 12.751 42.0637 12.7867 42.2774 12.7867C42.5624 12.7867 42.8829 12.751 43.1679 12.6798C43.5953 12.5373 43.9871 12.2168 44.2364 11.8606C44.735 11.2195 44.8419 10.5071 44.8419 9.72357V4.48783C44.8419 4.41659 44.8419 4.23851 44.8775 4.13166C44.9131 4.0248 44.9844 3.91795 44.9844 3.91795C45.3762 3.20561 46.694 2.92067 48.1543 3.27684C50.0776 3.77548 50.6475 5.09332 50.4338 5.6632C50.2201 6.26869 49.5434 6.66048 48.6529 6.66048C48.2255 6.66048 47.7981 6.58925 47.3707 6.44678C47.3707 6.44678 47.0858 6.37554 46.8721 6.30431C46.7652 6.26869 46.5871 6.16184 46.4091 6.16184C46.2666 6.16184 46.1953 6.26869 46.1953 6.51801V7.87147C46.1953 8.33449 46.3734 8.7619 46.6584 9.01122L50.8256 12.3236C51.2174 12.6086 51.6804 12.7867 52.1434 12.7867H54.9216C55.1353 12.7867 55.2065 12.6442 55.2065 12.4305V11.54C55.2777 11.3976 55.1709 11.2551 55.064 11.2195Z" fill="#EB3C96"/>
<path d="M38.3598 9.47378H34.6913C34.157 9.47378 33.694 9.33132 33.2309 9.15323C32.8392 8.97514 32.2337 8.44088 32.0556 8.2628C31.735 7.90663 31.4501 7.47922 31.272 6.98058C31.0939 6.48193 30.9871 5.98329 30.9871 5.48465C30.9871 4.80792 31.1651 4.30928 31.5569 3.95311C31.5926 3.91749 31.7706 3.77502 31.9487 3.66817C32.1268 3.56132 32.3405 3.49009 32.483 3.45447C32.6967 3.41885 32.946 3.38323 33.1953 3.38323C33.4447 3.38323 33.694 3.41885 33.9077 3.45447C34.3351 3.5257 34.7269 3.70379 35.1187 3.95311C35.6885 4.30928 36.294 4.87916 36.7214 5.41342H32.9104C32.6967 5.41342 32.5542 5.52027 32.5542 5.69836C32.5542 6.09015 32.6255 6.33947 32.7679 6.66002C32.9104 6.98058 33.6584 8.12033 35.1543 8.12033H38.716C39.3215 8.12033 39.7845 7.94224 39.9982 7.62169C40.2475 7.30113 40.3188 7.01619 40.3188 6.55317C40.3188 5.84082 40.1407 5.12848 39.7489 4.3449C39.3571 3.56132 38.8585 2.88459 38.1817 2.24348C37.5406 1.60237 36.7571 1.10373 35.9022 0.711939C35.0474 0.320149 34.1214 0.106445 33.1597 0.106445H27.924C27.7815 0.106445 27.639 0.213297 27.639 0.391383V5.5915C27.639 6.55317 27.8171 7.47922 28.2089 8.36965C28.6007 9.22446 29.0993 10.008 29.7405 10.6492C30.3816 11.2903 31.1295 11.8245 32.02 12.2163C32.8748 12.6081 33.8008 12.7862 34.7981 12.7862H40.0695C40.2119 12.7862 40.3544 12.6437 40.3544 12.5013V11.4327C40.3544 10.8272 40.1763 10.3286 39.8558 9.97243C39.464 9.65187 38.9653 9.47378 38.3598 9.47378Z" fill="#EB3C96"/>
<path d="M26.4992 1.92339C26.4992 0.890486 25.6444 0.0712891 24.6115 0.0712891H22.6526C22.5457 0.0712891 22.4745 0.106906 22.4033 0.178141L18.4497 3.88234C17.0963 5.16456 15.2798 5.8769 13.2496 5.8769C11.1482 5.8769 9.26049 5.09332 7.90703 3.73987C7.90703 3.73987 4.98642 0.997338 4.98642 0.961721C4.38092 0.463079 3.63296 0.106906 2.74253 0.0712891H0.39179C0.178086 0.0712891 0 0.249375 0 0.463079V10.8989C0 11.9318 0.819197 12.751 1.8521 12.751H2.56444H3.06308C3.27679 12.751 3.41926 12.5729 3.41926 12.3592V8.65505C3.41926 7.69338 4.20284 6.87419 5.1645 6.87419C6.94536 6.87419 8.22759 8.40573 9.36734 9.40301C10.792 10.6496 11.8605 11.8606 13.214 11.8606C14.5675 11.8606 15.636 10.6496 17.0607 9.40301C18.2004 8.37011 19.4826 6.87419 21.2635 6.87419C22.2252 6.87419 23.0087 7.65777 23.0087 8.61943V10.8633C23.0087 11.8962 23.8279 12.7154 24.8608 12.7154H25.68C25.8937 12.7154 26.0718 12.7154 26.0718 12.7154C26.2855 12.7154 26.4636 12.5373 26.4636 12.3236C26.4992 12.3592 26.4992 2.03024 26.4992 1.92339Z" fill="#EB3C96"/>
<path d="M67.6729 7.4436H65.7496C65.0372 7.4436 64.5742 7.76416 64.3605 8.36965C64.218 8.76144 64.0043 9.08199 63.7194 9.33132C63.3988 9.58064 63.0427 9.68749 62.544 9.68749C62.1166 9.68749 61.6536 9.54502 61.1906 9.2957C60.7275 9.04638 60.3001 8.72582 59.944 8.29841C59.5878 7.90663 59.2672 7.4436 59.0535 6.94496C58.8398 6.44632 58.6974 5.94768 58.6974 5.44903C58.6974 4.80792 58.8754 4.30928 59.2672 3.91749C59.659 3.5257 60.122 3.34762 60.6919 3.34762C61.333 3.34762 62.0098 3.59694 62.6509 4.05996C62.9002 4.27366 63.1851 4.3449 63.5057 4.3449C63.7906 4.3449 64.1112 4.16681 64.4317 3.84626L65.7496 2.56404C65.8208 2.4928 65.8564 2.42157 65.8208 2.35033C65.7852 2.2791 65.7496 2.20786 65.6783 2.13663C64.966 1.49552 64.1824 0.996877 63.3632 0.640704C62.5084 0.284532 61.6536 0.106445 60.7275 0.106445H55.5987C55.385 0.106445 55.3137 0.213297 55.3137 0.462618V5.5915C55.3137 6.58879 55.5274 7.51483 55.9192 8.40527C56.311 9.2957 56.8453 10.0793 57.522 10.756C58.1987 11.4327 58.9823 11.967 59.8727 12.3944C60.7632 12.7862 61.6536 12.9999 62.5796 12.9999C63.3276 12.9999 64.04 12.8574 64.6811 12.6081C65.3222 12.3588 65.892 12.0026 66.3551 11.5396C66.8181 11.0766 67.2099 10.5423 67.4948 9.90119C67.7798 9.26008 67.9222 8.58335 67.9935 7.83539C67.9935 7.55045 67.8866 7.4436 67.6729 7.4436Z" fill="#EB3C96"/>
</svg>
