<svg width="46" height="23" viewBox="0 0 46 23" fill="none" xmlns="http://www.w3.org/2000/svg">
<path d="M36.9514 10.1116C36.7486 9.70587 36.4677 9.39379 36.1088 9.17534C35.7499 8.95688 35.3286 8.84766 34.8605 8.84766C34.3924 8.84766 33.9867 8.95688 33.6122 9.17534C33.2533 9.39379 32.9725 9.70587 32.7696 10.1116C32.5668 10.5173 32.4731 11.001 32.4731 11.5315V12.7486C32.4731 13.2947 32.5668 13.7629 32.7696 14.1686C32.9725 14.5743 33.2533 14.8863 33.6122 15.1048C33.9711 15.3232 34.3924 15.4325 34.8605 15.4325C35.3286 15.4325 35.7343 15.3232 36.1088 15.1048C36.4677 14.8863 36.6862 14.6367 36.889 14.231C36.9826 14.0437 37.0607 13.7941 37.1075 13.5444L35.9684 13.2791C35.9216 13.5288 35.828 13.7472 35.7031 13.9189C35.5003 14.1842 35.2038 14.309 34.8605 14.309C34.5172 14.309 34.2208 14.1842 34.0179 13.9189C33.8151 13.6536 33.7058 13.2791 33.7058 12.811V12.3585H37.2323V11.5471C37.2479 11.001 37.1543 10.5173 36.9514 10.1116ZM34.8761 9.98673C35.2194 9.98673 35.5159 10.1116 35.7187 10.3612C35.906 10.5953 35.9996 10.9542 36.0152 11.3599H33.7371C33.7527 10.9542 33.8619 10.5953 34.0335 10.3612C34.2364 10.096 34.5328 9.98673 34.8761 9.98673Z" fill="#0050B6"/>
<path d="M28.1663 15.3071V11.1409C28.1663 10.7976 28.2599 10.5168 28.4628 10.3139C28.6656 10.1111 28.8997 10.0019 29.2118 10.0019C29.5082 10.0019 29.7579 10.1111 29.9608 10.3139C30.1636 10.5168 30.2572 10.7976 30.2572 11.1409V15.3071H31.4899V10.8757C31.4899 10.2359 31.3183 9.73659 30.9906 9.3777C30.6629 9.01881 30.2104 8.83157 29.6331 8.83157C29.321 8.83157 29.0401 8.89398 28.7749 9.01881C28.5096 9.14364 28.3067 9.31529 28.1819 9.48693V6.33496H26.9492V15.3071H28.1663Z" fill="#0050B6"/>
<path d="M22.5332 12.8264C22.5332 13.2945 22.6425 13.669 22.8453 13.9186C23.0482 14.1839 23.3602 14.2931 23.6879 14.2931C24.2965 14.2931 24.671 13.903 24.827 13.1228L25.9661 13.3881C25.8724 14.0435 25.6384 14.5428 25.2483 14.9017C24.8738 15.2606 24.3433 15.4478 23.6879 15.4478C22.9701 15.4478 22.3928 15.1981 21.9559 14.7144C21.519 14.2307 21.3005 13.5597 21.3005 12.7327V11.5468C21.3005 10.7198 21.519 10.0489 21.9559 9.56517C22.3928 9.08145 22.9701 8.83179 23.6879 8.83179C24.3433 8.83179 24.8738 9.01903 25.2483 9.37792C25.6228 9.73681 25.8724 10.2517 25.9661 10.8915L24.827 11.1568C24.6866 10.3766 24.3121 9.98647 23.6879 9.98647C23.3446 9.98647 23.0482 10.1113 22.8453 10.361C22.6425 10.6262 22.5332 11.0007 22.5332 11.4532V12.8264Z" fill="#0050B6"/>
<path d="M17.977 14.3085C17.6337 14.3085 17.3372 14.1837 17.1344 13.9184C16.9315 13.6532 16.8223 13.2787 16.8223 12.8106V11.4686C16.8223 11.0005 16.9315 10.626 17.1344 10.3764C17.3372 10.1111 17.6337 10.0019 17.977 10.0019C18.3203 10.0019 18.6167 10.1267 18.8196 10.3764C19.0224 10.6416 19.1317 11.0161 19.1317 11.4686V12.8106C19.1317 13.2787 19.0224 13.6532 18.8196 13.9184C18.6011 14.1837 18.3047 14.3085 17.977 14.3085ZM17.977 15.4632C18.4451 15.4632 18.8508 15.354 19.2253 15.1355C19.5842 14.9171 19.865 14.605 20.0679 14.1993C20.2707 13.7936 20.3644 13.3099 20.3644 12.7793V11.5466C20.3644 11.0005 20.2707 10.5324 20.0679 10.1267C19.865 9.721 19.5842 9.40893 19.2253 9.19047C18.8664 8.97202 18.4451 8.86279 17.977 8.86279C17.5089 8.86279 17.1032 8.97202 16.7287 9.19047C16.3698 9.40893 16.0889 9.721 15.8861 10.1267C15.6832 10.5324 15.5896 11.0161 15.5896 11.5466V12.7637C15.5896 13.3099 15.6832 13.778 15.8861 14.1837C16.0889 14.5894 16.3698 14.9015 16.7287 15.1199C17.0876 15.354 17.5089 15.4632 17.977 15.4632Z" fill="#0050B6"/>
<path d="M11.3609 10.1267V7.52085H12.6092C12.9369 7.52085 13.2021 7.63008 13.3894 7.84853C13.5766 8.06698 13.6703 8.39466 13.6703 8.83157C13.6703 9.26848 13.5766 9.61176 13.3894 9.81461C13.2021 10.0331 12.9525 10.1423 12.6092 10.1423H11.3609V10.1267ZM11.3609 15.3071V11.3126H12.422C12.7184 11.3126 12.9213 11.3906 13.0617 11.5154C13.1865 11.6559 13.2646 11.8743 13.2958 12.1864L13.639 15.3071H14.8718L14.4973 12.0772C14.4504 11.6871 14.4036 11.4374 14.2476 11.2033C14.1072 11.0005 13.9043 10.8289 13.6703 10.7508C14.0447 10.5636 14.3412 10.3139 14.5597 10.0019C14.7781 9.67417 14.8874 9.23727 14.8874 8.67553C14.8874 7.94215 14.6845 7.38042 14.2788 6.95911C13.8731 6.53781 13.3114 6.33496 12.6092 6.33496H10.1438V15.3071H11.3609Z" fill="#0050B6"/>
<path d="M45.0496 11.5L35.0632 23H10.7993L0.812866 11.5L10.7993 0H35.0476L45.0496 11.5ZM34.5171 21.8141L43.4893 11.4844L34.5171 1.17029H11.3298L2.35764 11.5L11.3298 21.8297H34.5171V21.8141Z" fill="#0050B6"/>
</svg>
